# xmcd
# Track frame offsets:
# 150
# 14518
# 30573
# 47137
# 64462
# 77269
# 94163
# 109907
# 131224
# 149542
# 165358
# 179977
# 193900
# 208229
# 222685
# 241205
#
# Disc length: 3441 seconds
# Revision: 0
# Processed by: cddbd v1.5.1PL0 Copyright (c) Steve Scherf et al.
# Submitted via: VisiTrax 2.9.10.228 - For more info visit www.synapsa.com
#
DISCID=fb0d6f10
DTITLE=Various Artist - Super Schlagerparade 1972
DYEAR=1900
DGENRE=Tysk Schlager
TTITLE0=Chris Roberts - Hab' Sonne Im Herzen
TTITLE1=Vickey Leandros - Dann Kamst du (Aprés toi)
TTITLE2=Roy Black - Träume in Samt und Seide
TTITLE3=Hanna Aroni - Eviva España
TTITLE4=Wum's Gesang - Ich wünsch' mir' kleine Miezekatze
TTITLE5=Ulli Martin - Du MuBt nicht weinen
TTITLE6=Juliane Werding - Am Tag, als Conny Kramer Sterb
TTITLE7=Christian Anders - Es fährt ein Zug N´nach nirgendwo
TTITLE8=Mouth and MacNeal - Hello-A
TTITLE9=Marianne Rosenberg - Er ist nicht wie du
TTITLE10=Freddy Breck - Überalt auf der Welt
TTITLE11=Daliah Lavi - Meine Art Liebe zu zeigen
TTITLE12=Beta IIlic - Michaela
TTITLE13=Roy Black - Eine Rose schenk' ich dir
TTITLE14=Vickey Leandros - Ich hab' die Liebe geseh'n - Un fiume amero kaymos
TTITLE15=J'urgen Marcus - Eine neue Liebe ist wie ein neues Leben
EXTD=
EXTT0=
EXTT1=
EXTT2=
EXTT3=
EXTT4=
EXTT5=
EXTT6=
EXTT7=
EXTT8=
EXTT9=
EXTT10=
EXTT11=
EXTT12=
EXTT13=
EXTT14=
EXTT15=
PLAYORDER=
